HIERARCHY
ROOT Root
{
  OFFSET 0.0 0.0 0.0
  CHANNELS 6 Xposition Yposition Zposition Zrotation Yrotation Xrotation
  JOINT Hips
  {
    OFFSET 0.0 100.0 0.0
    CHANNELS 6 Xposition Yposition Zposition Zrotation Yrotation Xrotation
    JOINT Spine1
    {
      OFFSET 5.003913 -0.037094 -0.013727
      CHANNELS 3 Zrotation Yrotation Xrotation
      JOINT Spine2
      {
        OFFSET 7.125363 -1e-06 0.0
        CHANNELS 3 Zrotation Yrotation Xrotation
        JOINT Chest
        {
          OFFSET 7.594027 1e-06 0.0
          CHANNELS 3 Zrotation Yrotation Xrotation
          JOINT Neck1
          {
            OFFSET 26.313086 -0.460272 -0.181672
            CHANNELS 3 Zrotation Yrotation Xrotation
            JOINT Neck2
            {
              OFFSET 8.045911 0.0 0.0
              CHANNELS 3 Zrotation Yrotation Xrotation
              JOINT Head
              {
                OFFSET 6.432774 0.0 0.0
                CHANNELS 3 Zrotation Yrotation Xrotation
                JOINT HeadEnd
                {
                  OFFSET 16.169773 0.06451 0.00362
                  CHANNELS 3 Zrotation Yrotation Xrotation
                }
                JOINT Jaw
                {
                  OFFSET 0.108741 3.12938 0.002639
                  CHANNELS 3 Zrotation Yrotation Xrotation
                }
                JOINT LeftEye
                {
                  OFFSET 4.45173 8.166359 3.206392
                  CHANNELS 3 Zrotation Yrotation Xrotation
                }
                JOINT RightEye
                {
                  OFFSET 4.436895 8.135758 -3.222429
                  CHANNELS 3 Zrotation Yrotation Xrotation
                }
              }
            }
          }
          JOINT LeftShoulder
          {
            OFFSET 23.218927 5.195579 1.621656
            CHANNELS 3 Zrotation Yrotation Xrotation
            JOINT LeftArm
            {
              OFFSET 15.902118 2e-06 -2e-06
              CHANNELS 3 Zrotation Yrotation Xrotation
              JOINT LeftForeArm
              {
                OFFSET 28.739307 0.0 -1e-06
                CHANNELS 3 Zrotation Yrotation Xrotation
                JOINT LeftHand
                {
                  OFFSET 27.093981 -4e-06 0.0
                  CHANNELS 3 Zrotation Yrotation Xrotation
                  JOINT LeftHandThumb1
                  {
                    OFFSET 2.276781 3.380274 0.83384
                    CHANNELS 3 Zrotation Yrotation Xrotation
                    JOINT LeftHandThumb2
                    {
                      OFFSET 4.705309 -1e-06 -1e-06
                      CHANNELS 3 Zrotation Yrotation Xrotation
                      JOINT LeftHandThumb3
                      {
                        OFFSET 2.798515 0.0 3e-06
                        CHANNELS 3 Zrotation Yrotation Xrotation
                        JOINT LeftHandThumbEnd
                        {
                          OFFSET 3.180793 4e-06 -4e-06
                          CHANNELS 3 Zrotation Yrotation Xrotation
                        }
                      }
                    }
                  }
                  JOINT LeftHandIndex1
                  {
                    OFFSET 3.247786 2.352677 0.137192
                    CHANNELS 3 Zrotation Yrotation Xrotation
                    JOINT LeftHandIndex2
                    {
                      OFFSET 6.367095 1e-06 0.0
                      CHANNELS 3 Zrotation Yrotation Xrotation
                      JOINT LeftHandIndex3
                      {
                        OFFSET 3.662364 0.0 0.0
                        CHANNELS 3 Zrotation Yrotation Xrotation
                        JOINT LeftHandIndex4
                        {
                          OFFSET 2.329242 4e-06 -4e-06
                          CHANNELS 3 Zrotation Yrotation Xrotation
                          JOINT LeftHandIndexEnd
                          {
                            OFFSET 2.767823 1e-06 0.0
                            CHANNELS 3 Zrotation Yrotation Xrotation
                          }
                        }
                      }
                    }
                  }
                  JOINT LeftHandMiddle1
                  {
                    OFFSET 3.163612 0.945023 -0.406112
                    CHANNELS 3 Zrotation Yrotation Xrotation
                    JOINT LeftHandMiddle2
                    {
                      OFFSET 6.276789 3e-06 0.0
                      CHANNELS 3 Zrotation Yrotation Xrotation
                      JOINT LeftHandMiddle3
                      {
                        OFFSET 4.35652 -1e-06 4e-06
                        CHANNELS 3 Zrotation Yrotation Xrotation
                        JOINT LeftHandMiddle4
                        {
                          OFFSET 2.996877 0.0 8e-06
                          CHANNELS 3 Zrotation Yrotation Xrotation
                          JOINT LeftHandMiddleEnd
                          {
                            OFFSET 2.323256 3e-06 -4e-06
                            CHANNELS 3 Zrotation Yrotation Xrotation
                          }
                        }
                      }
                    }
                  }
                  JOINT LeftHandRing1
                  {
                    OFFSET 2.882606 -0.309162 0.107445
                    CHANNELS 3 Zrotation Yrotation Xrotation
                    JOINT LeftHandRing2
                    {
                      OFFSET 6.033198 0.0 4e-06
                      CHANNELS 3 Zrotation Yrotation Xrotation
                      JOINT LeftHandRing3
                      {
                        OFFSET 4.350578 3e-06 0.0
                        CHANNELS 3 Zrotation Yrotation Xrotation
                        JOINT LeftHandRing4
                        {
                          OFFSET 2.651321 2e-06 -7e-06
                          CHANNELS 3 Zrotation Yrotation Xrotation
                          JOINT LeftHandRingEnd
                          {
                            OFFSET 1.937663 1e-06 -4e-06
                            CHANNELS 3 Zrotation Yrotation Xrotation
                          }
                        }
                      }
                    }
                  }
                  JOINT LeftHandPinky1
                  {
                    OFFSET 2.865315 -1.525436 0.575687
                    CHANNELS 3 Zrotation Yrotation Xrotation
                    JOINT LeftHandPinky2
                    {
                      OFFSET 5.54936 1e-06 -8e-06
                      CHANNELS 3 Zrotation Yrotation Xrotation
                      JOINT LeftHandPinky3
                      {
                        OFFSET 3.070974 0.0 -4e-06
                        CHANNELS 3 Zrotation Yrotation Xrotation
                        JOINT LeftHandPinky4
                        {
                          OFFSET 1.549672 1e-06 0.0
                          CHANNELS 3 Zrotation Yrotation Xrotation
                          JOINT LeftHandPinkyEnd
                          {
                            OFFSET 1.952123 0.0 0.0
                            CHANNELS 3 Zrotation Yrotation Xrotation
                          }
                        }
                      }
                    }
                  }
                }
              }
            }
          }
          JOINT RightShoulder
          {
            OFFSET 23.161716 5.296122 -1.380114
            CHANNELS 3 Zrotation Yrotation Xrotation
            JOINT RightArm
            {
              OFFSET -16.027195 -2e-06 1.1e-05
              CHANNELS 3 Zrotation Yrotation Xrotation
              JOINT RightForeArm
              {
                OFFSET -28.736639 4e-06 2e-06
                CHANNELS 3 Zrotation Yrotation Xrotation
                JOINT RightHand
                {
                  OFFSET -27.133619 6e-06 0.0
                  CHANNELS 3 Zrotation Yrotation Xrotation
                  JOINT RightHandThumb1
                  {
                    OFFSET -2.274328 -3.351035 -0.83067
                    CHANNELS 3 Zrotation Yrotation Xrotation
                    JOINT RightHandThumb2
                    {
                      OFFSET -4.703594 -3e-06 2e-06
                      CHANNELS 3 Zrotation Yrotation Xrotation
                      JOINT RightHandThumb3
                      {
                        OFFSET -2.794935 -4e-06 -3e-06
                        CHANNELS 3 Zrotation Yrotation Xrotation
                        JOINT RightHandThumbEnd
                        {
                          OFFSET -3.183852 4e-06 1e-06
                          CHANNELS 3 Zrotation Yrotation Xrotation
                        }
                      }
                    }
                  }
                  JOINT RightHandIndex1
                  {
                    OFFSET -3.253496 -2.33755 -0.127667
                    CHANNELS 3 Zrotation Yrotation Xrotation
                    JOINT RightHandIndex2
                    {
                      OFFSET -6.344434 0.0 0.0
                      CHANNELS 3 Zrotation Yrotation Xrotation
                      JOINT RightHandIndex3
                      {
                        OFFSET -3.654871 0.0 -8e-06
                        CHANNELS 3 Zrotation Yrotation Xrotation
                        JOINT RightHandIndex4
                        {
                          OFFSET -2.327586 -1e-06 0.0
                          CHANNELS 3 Zrotation Yrotation Xrotation
                          JOINT RightHandIndexEnd
                          {
                            OFFSET -2.770001 3e-06 8e-06
                            CHANNELS 3 Zrotation Yrotation Xrotation
                          }
                        }
                      }
                    }
                  }
                  JOINT RightHandMiddle1
                  {
                    OFFSET -3.168223 -0.944764 0.411762
                    CHANNELS 3 Zrotation Yrotation Xrotation
                    JOINT RightHandMiddle2
                    {
                      OFFSET -6.266691 -1e-06 -4e-06
                      CHANNELS 3 Zrotation Yrotation Xrotation
                      JOINT RightHandMiddle3
                      {
                        OFFSET -4.348901 0.0 0.0
                        CHANNELS 3 Zrotation Yrotation Xrotation
                        JOINT RightHandMiddle4
                        {
                          OFFSET -3.00024 2e-06 -4e-06
                          CHANNELS 3 Zrotation Yrotation Xrotation
                          JOINT RightHandMiddleEnd
                          {
                            OFFSET -2.321477 -4e-06 -4e-06
                            CHANNELS 3 Zrotation Yrotation Xrotation
                          }
                        }
                      }
                    }
                  }
                  JOINT RightHandRing1
                  {
                    OFFSET -2.885654 0.293261 -0.119232
                    CHANNELS 3 Zrotation Yrotation Xrotation
                    JOINT RightHandRing2
                    {
                      OFFSET -6.032835 -1e-06 -4e-06
                      CHANNELS 3 Zrotation Yrotation Xrotation
                      JOINT RightHandRing3
                      {
                        OFFSET -4.33881 0.0 -4e-06
                        CHANNELS 3 Zrotation Yrotation Xrotation
                        JOINT RightHandRing4
                        {
                          OFFSET -2.654903 -4e-06 -4e-06
                          CHANNELS 3 Zrotation Yrotation Xrotation
                          JOINT RightHandRingEnd
                          {
                            OFFSET -1.935122 0.0 4e-06
                            CHANNELS 3 Zrotation Yrotation Xrotation
                          }
                        }
                      }
                    }
                  }
                  JOINT RightHandPinky1
                  {
                    OFFSET -2.866241 1.503904 -0.60527
                    CHANNELS 3 Zrotation Yrotation Xrotation
                    JOINT RightHandPinky2
                    {
                      OFFSET -5.553177 -2e-06 0.0
                      CHANNELS 3 Zrotation Yrotation Xrotation
                      JOINT RightHandPinky3
                      {
                        OFFSET -3.062664 -1e-06 -4e-06
                        CHANNELS 3 Zrotation Yrotation Xrotation
                        JOINT RightHandPinky4
                        {
                          OFFSET -1.546529 2e-06 4e-06
                          CHANNELS 3 Zrotation Yrotation Xrotation
                          JOINT RightHandPinkyEnd
                          {
                            OFFSET -1.952341 0.0 -4e-06
                            CHANNELS 3 Zrotation Yrotation Xrotation
                          }
                        }
                      }
                    }
                  }
                }
              }
            }
          }
        }
      }
    }
    JOINT LeftLeg
    {
      OFFSET -8.443107 2.567604 10.043214
      CHANNELS 3 Zrotation Yrotation Xrotation
      JOINT LeftShin
      {
        OFFSET 43.229198 1e-06 -1e-06
        CHANNELS 3 Zrotation Yrotation Xrotation
        JOINT LeftFoot
        {
          OFFSET 42.298611 1e-06 1e-06
          CHANNELS 3 Zrotation Yrotation Xrotation
          JOINT LeftToeBase
          {
            OFFSET 14.165858 1e-06 0.0
            CHANNELS 3 Zrotation Yrotation Xrotation
            JOINT LeftToeEnd
            {
              OFFSET 6.7141 -0.234461 0.0
              CHANNELS 3 Zrotation Yrotation Xrotation
            }
          }
        }
      }
    }
    JOINT RightLeg
    {
      OFFSET -8.303923 2.592729 -10.047278
      CHANNELS 3 Zrotation Yrotation Xrotation
      JOINT RightShin
      {
        OFFSET -43.369682 0.0 1e-06
        CHANNELS 3 Zrotation Yrotation Xrotation
        JOINT RightFoot
        {
          OFFSET -42.260784 4e-06 2e-06
          CHANNELS 3 Zrotation Yrotation Xrotation
          JOINT RightToeBase
          {
            OFFSET -14.222245 -2e-06 -1e-06
            CHANNELS 3 Zrotation Yrotation Xrotation
            JOINT RightToeEnd
            {
              OFFSET -6.660062 0.232574 -2e-06
              CHANNELS 3 Zrotation Yrotation Xrotation
            }
          }
        }
      }
    }
  }
}
MOTION
Frames: 5
Frame Time: 0.03333333333333333
0.0 0.0 0.0 0.0 -0.0 0.0 7.176909 46.990471 145.289017 104.080185 -58.372349 81.097176 6.345842 -4.250448 -0.66587 -6.497001 -2.431398 -1.179894 26.430964 -6.102269 -6.46008 11.176993 7.55821 2.744454 -2.63713 -0.848594 -2.703999 -38.150845 -5.891273 -2.08705 5e-06 -1e-06 -0.0 -0.220072 0.04716 0.025212 0.006746 -0.035086 0.054574 0.028926 0.124497 0.002737 54.454292 -80.482712 -42.546944 74.50322 -31.076084 -31.414637 7.834064 -1.846964 0.271234 91.746521 75.558746 96.008018 17.636627 -26.322733 52.41119 -19.466656 -14.395597 29.410381 -2e-06 -8.774821 -1e-06 16.913513 -19.033085 4.582274 -0.609777 -1.795653 -3.889328 -4.807087 -11.046813 -2.937848 4e-06 -20.976017 1e-06 -5.019971 -25.033556 -4.031879 6e-06 -0.0 -2e-06 -10.634531 -5.686967 -3.565588 10.573275 -17.922951 -3.113901 3e-06 -13.821205 1e-06 -0.501779 -31.181501 -4.027012 -10.887385 -60.037304 7.468981 -13.982712 -7.150195 -2.875042 13.77273 -8.401491 -3.218243 0.347733 -34.211555 0.771656 -0.963029 -17.73337 2.62102 -0.0 -1e-06 1e-06 -17.346416 -20.095213 -4.201782 21.757555 -1.638376 3.866426 2e-06 -6.338822 1e-06 -1.697588 -22.591742 -6.194005 0.0 -4e-06 -3e-06 139.394928 -77.507072 49.835129 89.835381 7.514596 -31.395361 13.520583 -1.084694 -0.086093 0.18983 63.492905 0.745792 22.182106 -20.375891 49.933327 -16.701817 -16.743532 28.47654 -2e-06 -12.690602 2e-06 16.904753 -18.206612 3.052228 -0.105919 -1.513855 -4.275882 -5.039039 -5.61287 -2.953556 4e-06 -11.020523 -2e-06 -6.111298 -15.89533 -3.840472 0.0 -0.0 -1e-06 -10.283369 -5.680287 -4.341838 11.028293 -11.302403 -2.372635 -1.384268 -14.238578 -6.320123 -0.625434 -26.924185 -3.827604 -3.961199 -50.597347 -3.971355 -13.708523 -7.363475 -3.720938 18.14115 -14.052736 -3.242677 7e-06 -18.787266 -3e-06 -0.429712 -8.456041 2.555502 0.0 1e-06 -1e-06 -15.923534 -20.094482 -5.473585 30.419214 -7.190825 1.735923 3e-06 -8.162928 -3e-06 -1.8619 -22.861469 -6.167944 -1e-06 -2e-06 -1e-06 104.455574 7.580408 2.368206 118.819588 1.455996 0.283599 -43.733734 2.580236 -7.167174 -5.507444 1.206295 2.794705 -0.999996 -0.0 0.0 -25.183723 -11.920482 -1.967191 62.409264 -3.24315 1.035954 -30.030132 9.223878 4.704184 -1.337074 0.630595 1.61163 -1.000002 0.0 0.0 
0.0 0.0 0.0 0.0 -0.0 0.0 7.098945 47.359138 147.018082 103.973946 -58.666748 82.49456 6.544593 -4.163094 -0.795441 -6.536515 -2.48258 -1.324307 26.436802 -5.618898 -6.55315 11.326241 8.033468 2.72334 -2.653818 -0.974819 -3.34442 -38.361271 -6.015905 -2.949286 4e-06 0.0 0.0 -0.218637 0.064997 0.01882 -0.007931 -0.038155 0.046371 -0.010102 0.166668 -0.001686 56.598415 -80.172592 -44.567257 73.661537 -32.023933 -29.659103 9.687841 -1.582149 0.367388 85.442986 76.053917 92.55555 17.636629 -26.322727 52.411186 -19.46666 -14.395594 29.410385 -1e-06 -8.774821 -3e-06 17.215889 -18.956188 4.129442 -0.609777 -1.795653 -3.889327 -4.807088 -11.04681 -2.937851 4e-06 -20.976019 0.0 -5.019968 -25.033558 -4.031882 6e-06 0.0 -0.0 -10.634533 -5.686972 -3.565587 10.573274 -17.922947 -3.113902 3e-06 -13.821209 2e-06 -0.501776 -31.181505 -4.027017 -10.729005 -59.938168 7.263246 -13.982713 -7.150198 -2.875041 13.77273 -8.401493 -3.218241 0.347736 -34.21154 0.771652 -0.963028 -17.733366 2.62102 0.0 -0.0 -0.0 -17.346416 -20.095213 -4.201783 21.757555 -1.638378 3.866428 1e-06 -6.338822 -1e-06 -1.697587 -22.591742 -6.194007 0.0 -3e-06 -1e-06 136.853256 -77.344559 52.561909 89.996864 6.398274 -30.85358 13.522754 -1.101413 -0.048988 -0.318218 65.136467 0.623115 22.182116 -20.375891 49.933304 -16.701807 -16.743525 28.476522 -1e-06 -12.6906 -2e-06 16.685286 -18.17135 3.147709 -0.105919 -1.513858 -4.275881 -5.03904 -5.612872 -2.953556 5e-06 -11.020523 -1e-06 -6.111296 -15.895328 -3.840472 -0.0 -0.0 0.0 -10.28337 -5.680289 -4.341837 11.028294 -11.302403 -2.372631 -1.384269 -14.23858 -6.320119 -0.62544 -26.924187 -3.827601 -4.06249 -50.374966 -3.95295 -13.708522 -7.363478 -3.720939 18.141146 -14.052739 -3.242674 4e-06 -18.78727 -1e-06 -0.429712 -8.456045 2.555502 1e-06 1e-06 0.0 -15.923534 -20.094484 -5.473584 30.41921 -7.190821 1.735929 2e-06 -8.162925 -2e-06 -1.861904 -22.861469 -6.167941 0.0 -3e-06 -1e-06 106.391754 8.710792 2.779945 116.651299 1.422573 0.247418 -44.429523 3.12043 -6.922245 -5.746308 1.225721 2.739879 -0.999997 0.0 0.0 -24.766748 -12.424595 -3.090469 62.145981 -3.352094 1.06318 -30.245502 10.436495 4.900183 -1.058098 0.634034 1.62216 -1.000002 0.0 1e-06 
0.0 0.0 0.0 0.0 -0.0 0.0 6.989073 47.714054 148.597534 103.581535 -58.662754 83.653519 6.735923 -4.035441 -0.899161 -6.555896 -2.435918 -1.251059 26.428579 -5.189513 -6.248093 11.621643 8.00462 2.750334 -2.66403 -1.000249 -3.825908 -38.353294 -6.009071 -3.842111 6e-06 -0.0 0.0 -0.219905 0.069701 0.011174 -0.023241 -0.04716 0.046386 -0.031815 0.187844 -0.017656 54.400555 -80.718605 -42.347996 73.232536 -32.8055 -27.67304 13.505692 -1.001795 0.557563 75.276047 75.936974 86.642799 17.636629 -26.322741 52.411194 -19.466661 -14.395597 29.410385 0.0 -8.774822 -1e-06 17.652323 -18.861893 3.732129 -0.609777 -1.795655 -3.889327 -4.807087 -11.046809 -2.937849 3e-06 -20.976013 1e-06 -5.019973 -25.033554 -4.031879 6e-06 -0.0 2e-06 -10.634535 -5.686969 -3.565586 10.573276 -17.922951 -3.113898 4e-06 -13.821211 2e-06 -0.501779 -31.181505 -4.027012 -10.718059 -59.944595 7.257685 -13.982713 -7.150198 -2.875041 13.77273 -8.401492 -3.218242 0.347733 -34.211555 0.771658 -0.963031 -17.73337 2.621022 0.0 -1e-06 -0.0 -17.34642 -20.095219 -4.201779 21.757557 -1.638374 3.866428 2e-06 -6.338823 1e-06 -1.69759 -22.591747 -6.194003 -0.0 -4e-06 -3e-06 136.081406 -77.389198 53.618893 89.706131 5.326384 -30.310902 13.398413 -1.17567 -0.010216 -0.867072 66.801613 0.70423 22.182106 -20.375898 49.933315 -16.701817 -16.74353 28.476534 -2e-06 -12.690601 1e-06 16.616432 -18.111418 3.206233 -0.105919 -1.513857 -4.275881 -5.039039 -5.612868 -2.953557 6e-06 -11.020525 -0.0 -6.1113 -15.895332 -3.840472 1e-06 -0.0 2e-06 -10.283365 -5.680288 -4.341837 11.028296 -11.302406 -2.372634 -1.384267 -14.238581 -6.320121 -0.625438 -26.924194 -3.8276 -4.153723 -50.299561 -3.91041 -13.708523 -7.363475 -3.720938 18.141151 -14.052739 -3.242676 6e-06 -18.787271 -1e-06 -0.429712 -8.456047 2.555502 -0.0 0.0 0.0 -15.923532 -20.094482 -5.473583 30.41921 -7.190824 1.73592 2e-06 -8.162927 -2e-06 -1.861903 -22.861471 -6.16794 0.0 -4e-06 -0.0 108.494736 9.248785 3.25391 114.524323 1.364621 0.243832 -44.419697 4.154641 -6.782056 -6.069201 1.251762 2.683503 -0.999997 -0.0 -0.0 -24.684412 -12.745791 -4.382455 63.142422 -3.589611 1.129497 -30.887394 11.407516 4.967098 -0.78819 0.61799 1.654119 -1.000004 -0.0 -0.0 
0.0 0.0 0.0 0.0 -0.0 0.0 6.887674 48.012665 149.954971 103.050964 -58.555542 84.438118 6.835554 -3.91783 -0.964506 -6.547959 -2.287145 -1.056362 26.376993 -4.892082 -5.677765 12.003263 7.658342 2.871359 -2.666982 -0.983675 -4.057809 -38.219067 -5.752944 -4.649284 7e-06 0.0 0.0 -0.217379 0.07156 0.002235 0.022702 -0.058574 0.066865 0.029773 0.204924 -0.057269 46.327263 -81.905487 -34.293236 72.815941 -33.148193 -26.621748 20.443794 0.05949 0.825659 67.987495 74.457909 83.795135 17.636627 -26.322733 52.411198 -19.466661 -14.395596 29.410395 -2e-06 -8.77482 -1e-06 18.152922 -18.758057 3.60554 -0.609777 -1.795657 -3.889328 -4.807087 -11.046808 -2.937852 4e-06 -20.976015 -1e-06 -5.019969 -25.033556 -4.031882 7e-06 1e-06 1e-06 -10.634533 -5.686966 -3.565588 10.573271 -17.922951 -3.1139 3e-06 -13.821209 1e-06 -0.501776 -31.181505 -4.027017 -10.909091 -60.112926 7.504 -13.982712 -7.150198 -2.875043 13.772728 -8.401495 -3.218241 0.347733 -34.211552 0.771655 -0.963029 -17.73337 2.62102 -0.0 -0.0 -0.0 -17.346413 -20.095213 -4.201785 21.757555 -1.638376 3.866429 1e-06 -6.338825 1e-06 -1.697588 -22.591745 -6.194006 -0.0 -5e-06 -1e-06 136.985138 -77.607002 53.078007 89.167694 4.358984 -30.039469 13.098303 -1.202326 0.008559 -0.797836 68.323807 1.129034 22.182121 -20.375898 49.933323 -16.701815 -16.74353 28.476538 1e-06 -12.690605 -1e-06 16.622641 -18.024794 3.233739 -0.105919 -1.513856 -4.275882 -5.039041 -5.612873 -2.953557 4e-06 -11.020527 -1e-06 -6.1113 -15.895338 -3.84047 -1e-06 -0.0 -1e-06 -10.283371 -5.680291 -4.341838 11.028294 -11.302408 -2.372632 -1.384271 -14.238585 -6.320123 -0.625441 -26.924196 -3.827601 -4.228486 -50.32576 -3.820036 -13.708526 -7.36348 -3.720938 18.141151 -14.052739 -3.242675 4e-06 -18.787273 -0.0 -0.429713 -8.456044 2.555503 0.0 0.0 0.0 -15.923538 -20.09449 -5.473584 30.419214 -7.190824 1.735926 2e-06 -8.162929 -1e-06 -1.861904 -22.861473 -6.167941 0.0 -3e-06 -1e-06 110.437675 9.378336 3.684358 112.61145 1.248278 0.2649 -43.949097 5.523936 -6.842882 -6.379297 1.282943 2.633178 -0.999997 -0.0 -0.0 -25.187372 -12.94294 -5.905505 65.407265 -3.945601 1.232209 -31.785252 11.702052 4.823702 -0.413423 0.599336 1.705658 -1.000002 -0.0 0.0 
0.0 0.0 0.0 0.0 -0.0 0.0 6.819852 48.270824 151.069519 102.506248 -58.548889 84.843391 6.843477 -3.816698 -0.944634 -6.480718 -2.045359 -0.887821 26.230146 -4.840357 -5.081535 12.380123 7.239345 3.088174 -2.641857 -0.977628 -4.038699 -38.081524 -5.341355 -5.242796 6e-06 -0.0 -0.0 -0.201046 0.088667 -0.019675 0.145817 -0.04764 0.092373 0.174042 0.229484 -0.127742 32.571926 -82.947342 -20.590948 71.768852 -32.57616 -27.885069 31.493238 1.096111 0.913063 70.788666 70.761017 89.004486 17.636629 -26.322721 52.411171 -19.46665 -14.395596 29.410378 -2e-06 -8.774817 -1e-06 18.274986 -18.823658 4.13339 -0.609776 -1.795653 -3.889327 -4.807086 -11.046811 -2.937849 4e-06 -20.976015 -0.0 -5.019969 -25.033556 -4.031879 6e-06 0.0 1e-06 -10.634531 -5.686967 -3.565588 10.57327 -17.922951 -3.113899 3e-06 -13.821205 1e-06 -0.501778 -31.181498 -4.027012 -11.275499 -60.38192 7.879715 -13.982711 -7.150198 -2.875041 13.772724 -8.401493 -3.21824 0.347733 -34.211544 0.771655 -0.963028 -17.733368 2.621019 0.0 1e-06 0.0 -17.346413 -20.095213 -4.201782 21.757551 -1.638377 3.866427 2e-06 -6.338822 1e-06 -1.697587 -22.591736 -6.194004 0.0 -4e-06 -2e-06 138.665741 -77.918884 51.719074 88.695389 3.595226 -30.185205 12.635228 -1.180586 0.004056 0.347579 69.641518 1.989833 22.182114 -20.375893 49.933323 -16.701809 -16.743526 28.476532 0.0 -12.690601 -1e-06 16.61998 -17.960997 3.218062 -0.10592 -1.513857 -4.275882 -5.039039 -5.612872 -2.953555 5e-06 -11.020525 -1e-06 -6.1113 -15.89533 -3.840472 0.0 -1e-06 -1e-06 -10.283367 -5.680288 -4.341838 11.028292 -11.302406 -2.372633 -1.384268 -14.238579 -6.320122 -0.625441 -26.924194 -3.8276 -4.223921 -50.32486 -3.744778 -13.708523 -7.363478 -3.720938 18.141146 -14.052737 -3.242673 5e-06 -18.787271 -1e-06 -0.429712 -8.456041 2.555504 -0.0 0.0 -1e-06 -15.923534 -20.094484 -5.473585 30.41921 -7.190823 1.735924 2e-06 -8.162926 -1e-06 -1.861903 -22.861469 -6.167942 0.0 -3e-06 -1e-06 111.952461 9.300714 4.062084 111.000237 1.105863 0.258442 -43.397747 6.967022 -7.118067 -6.783661 1.305939 2.595333 -0.999992 -0.0 -0.0 -26.54232 -13.162826 -7.376763 68.838097 -4.221807 1.311263 -32.960186 11.173309 4.531194 -0.007142 0.56273 1.775559 -1.000002 1e-06 -0.0 
